# xmcd
#
# Track frame offsets: 
#        150
#        19379
#        38193
#        53863
#        70564
#        82201
#        101122
#        117101
#        132480
#        132801
#
# Disc length: 1958 seconds
#
# Revision: 2
# Processed by: cddbd v1.4PL0 Copyright (c) Steve Scherf et al.
# Submitted via: ExactAudioCopy v0.95a3
#
DISCID=8c07a40a
DTITLE=After The Last - Red Thread, The
DYEAR=2003
DGENRE=Country
TTITLE0=Spread Thin
TTITLE1=Subject To Change
TTITLE2=The Fly Out
TTITLE3=5
TTITLE4=Sailin' On
TTITLE5=All In
TTITLE6=The Loose Brick
TTITLE7=Borrow And Spend
TTITLE8=Details
TTITLE9=Unlisted Bonus Track
EXTD=
EXTT0=
EXTT1=
EXTT2=
EXTT3=
EXTT4=
EXTT5=
EXTT6=
EXTT7=
EXTT8=
EXTT9=
PLAYORDER=
